<svg xmlns="http://www.w3.org/2000/svg" version="1.1" xmlns:xlink="http://www.w3.org/1999/xlink" xmlns:svgjs="http://svgjs.dev/svgjs" width="100%" height="100%" viewBox="0 0 1000 600"><rect width="1000" height="600" x="0" y="0" fill="#efbf04"/><g><rect width="333.3333333333333" height="333.3333333333333" rx="13.333333333333334" ry="13.333333333333334" y="174.2385574601609" fill="#292826" transform="matrix(0.8222803168857418,0,0,0.8222803168857418,0,19.680386054838976)" x="152.01632690429685"/><path d="M325.6172171541651 415.9052019755849L325.6172171541651 415.9052019755849Q304.9721253681799 415.9052019755849 289.74834012752217 407.3004537960827Q274.55607411096514 398.6641863924798 266.1404412760674 382.9045743421094Q257.75632766527036 367.1134430676383 257.75632766527036 345.8064475755376L257.75632766527036 345.8064475755376Q257.75632766527036 328.5339127683317 263.6504225721089 313.908992785588Q269.5445174789474 299.2840728028443 280.2295344490985 288.504498160391Q290.8830321951488 277.72492351793767 305.28731760918737 271.7993093869984Q319.72312224732656 265.9052144801599 336.96413783043175 265.9052144801599L336.96413783043175 265.9052144801599Q343.9929248048969 265.9052144801599 351.0217117793621 266.6931950826784Q358.0504987538273 267.5126949092977 363.7239590919606 268.64738697692434Q369.3974194300939 269.782079044551 372.92757252937685 270.5700596470695Q376.45772562865983 271.35804024958804 376.45772562865983 271.35804024958804L376.45772562865983 271.35804024958804L377.34026390348055 272.71336688591987Q377.34026390348055 272.71336688591987 376.2055718358539 277.81948119023986Q375.07087976822726 282.92559549455984 373.71555313189543 291.5618628981628Q372.36022649556355 300.16661107766504 371.66680356534727 310.63099347911094L371.66680356534727 310.63099347911094L360.7926712505917 311.5135317539317Q360.7926712505917 311.5135317539317 361.13938271569987 307.7942633100443Q361.4545749567073 304.04347564205614 361.4545749567073 300.41876487047097L361.4545749567073 300.41876487047097Q361.4545749567073 289.7337479003198 353.19653824231324 284.53307592369765Q344.90698230381844 279.30088472297473 328.1072358581236 279.30088472297473L328.1072358581236 279.30088472297473Q312.9149698415666 279.30088472297473 301.66260683760214 286.55030626614507Q290.44176305773846 293.83124703341616 284.29551435809407 306.974763483425Q278.1807848825503 320.14979915753463 278.1807848825503 338.3048722395613L278.1807848825503 338.3048722395613Q278.1807848825503 358.2880603194309 284.6422258232022 373.1336148708798Q291.10366676385405 388.01068864642934 302.79729890522884 396.30024458492414Q314.49093104660363 404.5582812993183 330.15598542467177 404.5582812993183L330.15598542467177 404.5582812993183Q345.5688860099339 404.5582812993183 354.9931340160554 395.82745622341304Q364.4173820221769 387.0966311475079 368.7355157239784 368.7209234967761L368.7355157239784 368.7209234967761L379.60964803873395 367.80686599785463Q379.60964803873395 367.80686599785463 378.94774433261836 371.2109422007346Q378.254321402402 374.6150184036146 377.24570623117836 380.1624018453449Q376.2055718358539 385.74130451117605 375.19695666463025 392.2027454518279Q374.18834149340654 398.6641863924798 373.4949185631902 404.8104350921242L373.4949185631902 404.8104350921242L372.1395919268584 406.8276654345716Q372.1395919268584 406.8276654345716 366.11942012361686 409.0970495698249Q360.09924832037547 411.3664337050783 349.66638514303025 413.6358178403316Q339.23352196568504 415.9052019755849 325.6172171541651 415.9052019755849Z " fill="#efbf04" transform="matrix(0.8222803168857418,0,0,0.8222803168857418,0,19.680386054838976)"/><path d="M628.1800393943619 415.9052075092975L628.1800393943619 415.9052075092975Q610.0794507236327 415.9052075092975 596.7319937343775 408.36099268928365Q583.4121712316424 400.78914338274967 576.0337633307498 386.97190012265105Q568.6829899163773 373.1270223760323 568.6829899163773 354.44610948837897L568.6829899163773 354.44610948837897Q568.6829899163773 339.3024108753109 573.8506388956542 326.4800091299394Q579.0182878749312 313.6576073845679 588.386378805278 304.2066129946604Q597.7268352491046 294.755618604753 610.3557955888348 289.5603351389559Q623.0123904150851 284.39268615967904 638.128454541633 284.39268615967904L638.128454541633 284.39268615967904Q644.2909450356369 284.39268615967904 650.4534355296408 285.083548322684Q656.6159260236449 285.8020449722091 661.5901335972803 286.7968864869362Q666.5643411709158 287.7917280016633 669.659403661178 288.48259016466824Q672.75446615144 289.1734523276732 672.75446615144 289.1734523276732L672.75446615144 289.1734523276732L673.5282317740056 290.36173524804167Q673.5282317740056 290.36173524804167 672.5333902592785 294.83852206431357Q671.5385487445513 299.3153088805855 670.3502658241829 306.88715818711955Q669.1619829038144 314.4313730071334 668.55402420037 323.6060225318389L668.55402420037 323.6060225318389L659.020126350902 324.3797881544044Q659.020126350902 324.3797881544044 659.3241057026243 321.1189187450211Q659.6004505678262 317.8304148491177 659.6004505678262 314.652448899295L659.6004505678262 314.652448899295Q659.6004505678262 305.28435796894814 652.3602150995345 300.7246676931156Q645.0923451447226 296.1373429307629 630.3631638294576 296.1373429307629L630.3631638294576 296.1373429307629Q617.0433413267225 296.1373429307629 607.1778296390121 302.4932748304082Q597.3399524378218 308.8768412165738 591.9512275663834 320.40042209549597Q586.5901371814651 331.9516374609384 586.5901371814651 347.869101696572L586.5901371814651 347.869101696572Q586.5901371814651 365.3893661503771 592.2552069181056 378.40520930138996Q597.9202766547461 391.44868693892306 608.1726711537392 398.71655689373483Q618.4250656527323 405.9567923620266 632.1594054532703 405.9567923620266L632.1594054532703 405.9567923620266Q645.6726693616467 405.9567923620266 653.9353808311857 398.3020395959319Q662.1980923007246 390.6472868298373 665.9840169539917 374.53638118856236L665.9840169539917 374.53638118856236L675.5179148034598 373.7349810794766Q675.5179148034598 373.7349810794766 674.9375905865356 376.71950562365794Q674.3296318830912 379.70403016783916 673.445328314445 384.5676997953939Q672.5333902592785 389.45900390946883 671.6490866906321 395.1240736461092Q670.7647831219858 400.78914338274967 670.1568244185415 406.1778682541882L670.1568244185415 406.1778682541882L668.9685414981731 407.9464753914807Q668.9685414981731 407.9464753914807 663.6903545728154 409.93615842093493Q658.4121676474577 411.92584145038916 649.2651526092724 413.9155244798434Q640.1181375710871 415.9052075092975 628.1800393943619 415.9052075092975ZM727.0562321636274 415.9052075092975L727.0562321636274 415.9052075092975Q715.7260926903467 415.9052075092975 706.9659604634442 410.3506757187379Q698.2058282365416 404.768509441658 693.342158608987 394.7371908348265Q688.450854494912 384.67823774147473 688.450854494912 371.74529805002237L688.450854494912 371.74529805002237Q688.450854494912 357.4306340325603 694.5304415293555 345.9899566131986Q700.6100285637988 334.54927919383704 711.138767927994 327.8617334559493Q721.6951417787093 321.20182220458173 734.6280814701615 321.20182220458173L734.6280814701615 321.20182220458173Q745.9582209434424 321.20182220458173 754.7183531703449 326.7839884816616Q763.4784853972475 332.3385202722212 768.3421550248021 342.28693541949224Q773.233459138877 352.23535056676315 773.233459138877 365.3893661503771L773.233459138877 365.3893661503771Q773.233459138877 379.5105887621978 767.1538721044336 391.03416964112Q761.0742850699902 402.58538500656243 750.6284491653557 409.24529625793Q740.1826132607212 415.9052075092975 727.0562321636274 415.9052075092975ZM732.6383984407073 406.1778682541882L732.6383984407073 406.1778682541882Q743.7750965083468 406.1778682541882 750.3521043001538 397.1137566755634Q756.9014776054405 388.0496450969388 756.9014776054405 372.54669815910813L756.9014776054405 372.54669815910813Q756.9014776054405 360.608599982383 753.336628844335 351.4615849441976Q749.7441455967095 342.28693541949224 743.3882136970641 337.1192864402153Q737.0046473108985 331.9516374609384 728.659032381799 331.9516374609384L728.659032381799 331.9516374609384Q717.5223343141595 331.9516374609384 710.9453265223525 341.0986524991238Q704.3683187305456 350.24566753730903 704.3683187305456 365.96969036730115L704.3683187305456 365.96969036730115Q704.3683187305456 377.9077885440264 707.9608019781713 386.97190012265105Q711.5532852257969 396.00837721475557 717.9092171254423 401.0931227344719Q724.2651490250876 406.1778682541882 732.6383984407073 406.1778682541882ZM785.7518815325263 415.9052075092975L785.7518815325263 415.9052075092975L786.5532816416121 407.75303398583935Q792.3288893243333 406.1778682541882 794.6225517055096 403.6907644673704Q796.8885796001658 401.2036606805526 797.3030968979688 397.0032187294827Q797.6899797092516 392.8304112649329 797.6899797092516 386.66792077092884L797.6899797092516 386.66792077092884L797.6899797092516 288.9800109220318Q797.6899797092516 284.0058033483963 796.8056761406052 281.7121409672199Q795.8937380854387 279.41847858604353 793.406634298621 278.8381543691194Q790.9195305118033 278.23019566567507 785.9453229381678 278.8381543691194L785.9453229381678 278.8381543691194L785.3649987212436 278.4236370713164L786.1663988303293 271.65318787386815Q793.5171722447018 270.65834635914104 800.8679456590743 269.27662203313116Q808.2463535599669 267.89489770712134 815.5971269743394 265.9052146776671L815.5971269743394 265.9052146776671L816.7854098947079 268.47522192404546Q816.0116442721422 269.8845807365755 815.2102441630566 277.53933350267016Q814.4088440539708 285.19408626876475 813.7179818909659 297.6296052028535Q813.027119727961 310.06512413694225 812.4191610245167 325.7891469669345Q811.8112023210723 341.5131697969267 811.5348574558703 359.0057997642115Q811.2308781041482 376.5260642180165 811.2308781041482 394.01869418530134L811.2308781041482 394.01869418530134Q811.2308781041482 399.9877432736639 812.8060438357994 402.58538500656243Q814.4088440539708 405.18302673946096 818.1947687072378 405.18302673946096L818.1947687072378 405.18302673946096L825.1586593103276 404.768509441658L825.5455421216103 405.5699095507438L823.9703763899591 414.13660037200486Q820.7647759536162 413.9155244798434 815.5142235147788 413.7220830742019Q810.2360365894211 413.52864166856057 806.2566705305127 413.52864166856057L806.2566705305127 413.52864166856057Q802.664187282887 413.52864166856057 797.1925589518879 414.2195038315655Q791.7209306208889 414.9103659945704 785.7518815325263 415.9052075092975ZM834.3056743485128 415.9052075092975L834.3056743485128 415.9052075092975L835.1070744575985 407.75303398583935Q840.8826821403198 406.1778682541882 843.148710034976 403.6907644673704Q845.4423724161524 401.2036606805526 845.8568897139553 397.0032187294827Q846.243772525238 392.8304112649329 846.243772525238 386.66792077092884L846.243772525238 386.66792077092884L846.243772525238 288.9800109220318Q846.243772525238 284.0058033483963 845.3594689565917 281.7121409672199Q844.4475309014252 279.41847858604353 841.9604271146075 278.8381543691194Q839.4733233277897 278.23019566567507 834.4991157541542 278.8381543691194L834.4991157541542 278.8381543691194L833.91879153723 278.4236370713164L834.6925571597956 271.65318787386815Q842.0709650606883 270.65834635914104 849.4217384750607 269.27662203313116Q856.8001463759534 267.89489770712134 864.1509197903257 265.9052146776671L864.1509197903257 265.9052146776671L865.3392027106943 268.47522192404546Q864.5378026016086 269.8845807365755 863.764036979043 277.53933350267016Q862.9626368699574 285.19408626876475 862.2717747069524 297.6296052028535Q861.5532780574273 310.06512413694225 860.9729538405031 325.7891469669345Q860.3649951370588 341.5131697969267 860.0610157853366 359.0057997642115Q859.7846709201345 376.5260642180165 859.7846709201345 394.01869418530134L859.7846709201345 394.01869418530134Q859.7846709201345 399.9877432736639 861.3598366517859 402.58538500656243Q862.9626368699574 405.18302673946096 866.7485615232243 405.18302673946096L866.7485615232243 405.18302673946096L873.7124521263141 404.768509441658L874.0993349375968 405.5699095507438L872.4965347194253 414.13660037200486Q869.3185687696026 413.9155244798434 864.0403818442451 413.7220830742019Q858.7898294054075 413.52864166856057 854.8104633464992 413.52864166856057L854.8104633464992 413.52864166856057Q851.2179800988735 413.52864166856057 845.7463517678744 414.2195038315655Q840.2747234368754 414.9103659945704 834.3056743485128 415.9052075092975ZM951.5035316806692 415.9052075092975L951.5035316806692 415.9052075092975Q943.5447995628523 415.9052075092975 939.0680127465804 411.84293799082855Q934.5912259303084 407.75303398583935 933.7898258212227 399.79430186802256L933.7898258212227 399.79430186802256L932.988425712137 399.6008604623812Q928.2076595441429 404.3816266303753 923.9519486200326 407.8635719319201Q919.668603209402 411.345517233465 916.3800993134985 413.22466231683836Q913.091595417595 415.131441886732 911.1019123881409 415.131441886732L911.1019123881409 415.131441886732Q903.7511389737684 415.131441886732 897.9755312910472 411.92584145038916Q892.199923608326 408.74787550056647 888.9114197124226 403.19334371000684Q885.6505503030393 397.611177432927 885.6505503030393 390.45384542419595L885.6505503030393 390.45384542419595Q885.6505503030393 384.67823774147473 888.5245369011398 380.3119888712836Q891.3985234992402 375.9181055145722 896.1792896672345 374.53638118856236L896.1792896672345 374.53638118856236L933.9832672268641 364.1734487434884L934.1767086325054 355.4409510031061Q934.1767086325054 345.49253585583506 929.6170183566729 339.9103695787552Q925.0296935943203 334.32820330167544 916.6840786652207 334.32820330167544L916.6840786652207 334.32820330167544Q911.1019123881409 334.32820330167544 904.9394218941369 336.92584503457397Q898.7769314001329 339.5234867674725 892.8078823117703 344.27661844894635L892.8078823117703 344.27661844894635L891.8130407970433 343.6962942320223L889.408840469786 335.1296034107611Q894.6041239355831 332.14507886657987 900.9600558352284 328.8565749706763Q907.3159877348738 325.59570556129313 913.091595417595 323.3849466396773Q918.8672031003163 321.20182220458173 921.8517276444976 321.20182220458173L921.8517276444976 321.20182220458173Q930.6118598714 321.20182220458173 936.7743503654041 324.2968846948438Q942.9368408594081 327.36431269858576 946.2253447553115 333.05701692174637Q949.513848651215 338.72208665838673 949.513848651215 346.874260181845L949.513848651215 346.874260181845Q949.513848651215 349.4719019147435 949.0164278938513 355.2198751109445Q948.5190071364879 360.9954827936657 947.7176070274021 368.06991134283624Q946.9162069183164 375.1167054054865 946.4187861609529 381.6937131972934Q945.9213654035892 388.27072098910037 945.9213654035892 392.6369698592915L945.9213654035892 392.6369698592915Q945.9213654035892 397.0032187294827 948.1044898386849 399.40741905673985Q950.3152487603007 401.7839848974768 954.0735389270475 401.7839848974768L954.0735389270475 401.7839848974768Q957.4725807690317 401.7839848974768 960.8439881244958 400.09828121974476Q964.2430299664801 398.41257754201274 966.0116371037726 396.8097773238412L966.0116371037726 396.8097773238412L968.8027202423126 399.9877432736639Q967.2275545106613 402.58538500656243 964.5193748316821 405.873888902466Q961.8388296392229 409.1623927983694 958.5503257433194 411.92584145038916Q955.2894563339361 414.71692458892903 951.5035316806692 415.9052075092975ZM914.5009542301251 401.59054349183543L914.5009542301251 401.59054349183543Q918.2592443968718 401.59054349183543 923.3439899165882 398.9099982993763Q928.4287354363045 396.22945310691716 932.6015429008543 392.0290111558471L932.6015429008543 392.0290111558471L933.5963844155814 371.74529805002237L906.5422221123083 379.89747157348063Q900.7666144295871 381.6937131972934 900.7666144295871 388.27072098910037L900.7666144295871 388.27072098910037Q900.7666144295871 393.82525277966 904.6354425424147 397.7217153790077Q908.5319051417624 401.59054349183543 914.5009542301251 401.59054349183543ZM1014.5654299197591 415.9052075092975L1014.5654299197591 415.9052075092975Q1008.0160566144724 415.9052075092975 1002.1299109856703 415.32488329237344Q996.2713998433886 414.71692458892903 992.5960131362024 414.13660037200486Q988.892991942496 413.52864166856057 988.892991942496 413.52864166856057L988.892991942496 413.52864166856057L987.1243848052034 411.92584145038916L987.1243848052034 288.9800109220318Q987.1243848052034 283.39784464495193 985.3281431813906 280.8278373985736Q983.5319015575777 278.23019566567507 979.7459769043106 278.23019566567507L979.7459769043106 278.23019566567507Q978.1708111726595 278.23019566567507 976.7614523601295 278.5341750173973Q975.3797280341195 278.8381543691194 975.3797280341195 278.8381543691194L975.3797280341195 278.8381543691194L974.7717693306753 278.23019566567507L975.5731694397609 271.65318787386815Q980.7408184190377 271.07286365694404 985.9084673983147 270.0780221422169Q991.1037508641117 269.0831806274898 995.4699997343029 268.0883391127627Q999.836248604494 267.0934975980356 1002.4338903373925 266.4855388945913Q1005.0315320702911 265.9052146776671 1005.0315320702911 265.9052146776671L1005.0315320702911 265.9052146776671L1006.2198149906596 268.47522192404546Q1005.4184148815739 269.8845807365755 1004.5341113129276 278.61707847695783Q1003.6221732577611 287.3772107038603 1002.9313110947561 301.9129506134841Q1002.2404489317513 316.42105603658763 1001.6324902283069 335.1296034107611L1001.6324902283069 335.1296034107611Q1010.7795052664923 328.58023010547436 1017.2459751122182 324.877208911768Q1023.7124449579444 321.20182220458173 1025.7021279873989 321.20182220458173L1025.7021279873989 321.20182220458173Q1037.0599019471997 321.20182220458173 1045.7094962280212 326.59054707602024Q1054.359090508843 331.9516374609384 1059.250394622918 341.5131697969267Q1064.114064250473 351.0470676463947 1064.114064250473 363.7865659322056L1064.114064250473 363.7865659322056Q1064.114064250473 378.32230584182935 1057.4541529991052 390.14986607247374Q1050.794241747738 401.97742630311814 1039.5470057340176 408.9413169062078Q1028.2997697202973 415.9052075092975 1014.5654299197591 415.9052075092975ZM1020.1475961968389 404.9619508472995L1020.1475961968389 404.9619508472995Q1033.467418699574 404.9619508472995 1041.1221714656685 395.92547375519496Q1048.8045587182837 386.8613621765703 1048.8045587182837 371.1373393465781L1048.8045587182837 371.1373393465781Q1048.8045587182837 360.9954827936657 1045.322613416739 352.7327713241267Q1041.8406681151937 344.49769434110794 1035.871619026831 339.6063902270331Q1029.9025699384688 334.7427205994784 1022.5241620375759 334.7427205994784L1022.5241620375759 334.7427205994784Q1018.5447959786675 334.7427205994784 1012.4928434307443 337.8101486032202Q1006.4132563963009 340.9052110934823 1001.2456074170241 345.49253585583506L1001.2456074170241 345.49253585583506L1000.6376487135798 400.78914338274967Q1004.2301319612055 402.58538500656243 1009.784663751765 403.773667926931Q1015.3668300288449 404.9619508472995 1020.1475961968389 404.9619508472995Z " fill="#403301" transform="matrix(0.8222803168857418,0,0,0.8222803168857418,0,19.680386054838976)"/></g></svg>